<svg width="164" height="49" viewBox="0 0 164 49" fill="none" xmlns="http://www.w3.org/2000/svg">
<rect x="0.37788" y="0.37788" width="163.244" height="47.6129" rx="5.6682" stroke="black" stroke-width="0.75576"/>
<path d="M66.7034 11.5572C66.528 11.1884 66.2741 10.9042 65.9416 10.7047C65.609 10.4991 65.2221 10.3963 64.7807 10.3963C64.3394 10.3963 63.9403 10.4991 63.5836 10.7047C63.2329 10.9042 62.9548 11.1944 62.7492 11.5753C62.5497 11.9502 62.45 12.3855 62.45 12.8813C62.45 13.377 62.5497 13.8124 62.7492 14.1872C62.9548 14.5621 63.2329 14.8523 63.5836 15.0579C63.9403 15.2574 64.3394 15.3571 64.7807 15.3571C65.3974 15.3571 65.9053 15.1727 66.3043 14.8039C66.7034 14.4351 66.9361 13.9363 67.0027 13.3075H64.4814V12.6364H67.8824V13.2712C67.834 13.7912 67.6707 14.2688 67.3926 14.7042C67.1145 15.1334 66.7487 15.475 66.2953 15.729C65.8418 15.9769 65.337 16.1008 64.7807 16.1008C64.1942 16.1008 63.6592 15.9648 63.1755 15.6927C62.6918 15.4146 62.3079 15.0306 62.0237 14.5409C61.7456 14.0512 61.6065 13.498 61.6065 12.8813C61.6065 12.2646 61.7456 11.7113 62.0237 11.2216C62.3079 10.7258 62.6918 10.3419 63.1755 10.0698C63.6592 9.79171 64.1942 9.65265 64.7807 9.65265C65.4518 9.65265 66.0444 9.81892 66.5583 10.1515C67.0782 10.484 67.4561 10.9526 67.6919 11.5572H66.7034ZM69.7988 10.3963V12.5094H72.1024V13.1896H69.7988V15.3662H72.3745V16.0464H68.9736V9.71614H72.3745V10.3963H69.7988ZM77.5139 9.72521V10.3963H75.7908V16.0464H74.9655V10.3963H73.2333V9.72521H77.5139ZM81.7729 9.72521V16.0464H80.9476V9.72521H81.7729ZM87.0701 9.72521V10.3963H85.347V16.0464H84.5217V10.3963H82.7895V9.72521H87.0701ZM93.3697 16.1099C92.7832 16.1099 92.2482 15.9738 91.7645 15.7018C91.2808 15.4236 90.8969 15.0397 90.6127 14.55C90.3346 14.0542 90.1955 13.498 90.1955 12.8813C90.1955 12.2646 90.3346 11.7113 90.6127 11.2216C90.8969 10.7258 91.2808 10.3419 91.7645 10.0698C92.2482 9.79171 92.7832 9.65265 93.3697 9.65265C93.9622 9.65265 94.5003 9.79171 94.984 10.0698C95.4677 10.3419 95.8486 10.7228 96.1267 11.2125C96.4048 11.7023 96.5439 12.2585 96.5439 12.8813C96.5439 13.504 96.4048 14.0602 96.1267 14.55C95.8486 15.0397 95.4677 15.4236 94.984 15.7018C94.5003 15.9738 93.9622 16.1099 93.3697 16.1099ZM93.3697 15.3934C93.8111 15.3934 94.2071 15.2906 94.5578 15.0851C94.9145 14.8795 95.1926 14.5863 95.3921 14.2054C95.5977 13.8245 95.7005 13.3831 95.7005 12.8813C95.7005 12.3734 95.5977 11.932 95.3921 11.5572C95.1926 11.1763 94.9175 10.883 94.5668 10.6775C94.2162 10.4719 93.8171 10.3691 93.3697 10.3691C92.9223 10.3691 92.5233 10.4719 92.1726 10.6775C91.8219 10.883 91.5438 11.1763 91.3382 11.5572C91.1387 11.932 91.039 12.3734 91.039 12.8813C91.039 13.3831 91.1387 13.8245 91.3382 14.2054C91.5438 14.5863 91.8219 14.8795 92.1726 15.0851C92.5293 15.2906 92.9284 15.3934 93.3697 15.3934ZM102.603 16.0464H101.778L98.4587 11.013V16.0464H97.6334V9.71614H98.4587L101.778 14.7404V9.71614H102.603V16.0464Z" fill="black"/>
<path d="M69.9529 29.1679C69.6808 28.6439 69.3029 28.2509 68.8193 27.9889C68.3356 27.7168 67.7763 27.5808 67.1415 27.5808C66.4462 27.5808 65.8264 27.737 65.2823 28.0493C64.7382 28.3617 64.3099 28.8051 63.9975 29.3795C63.6952 29.9539 63.5441 30.6189 63.5441 31.3747C63.5441 32.1305 63.6952 32.8006 63.9975 33.385C64.3099 33.9594 64.7382 34.4028 65.2823 34.7152C65.8264 35.0275 66.4462 35.1837 67.1415 35.1837C68.0786 35.1837 68.8394 34.9217 69.4239 34.3977C70.0083 33.8737 70.366 33.1633 70.497 32.2665H66.552V30.891H72.3411V32.2363C72.2303 33.0525 71.938 33.8032 71.4644 34.4884C71.0009 35.1737 70.3912 35.7228 69.6355 36.136C68.8898 36.5391 68.0585 36.7406 67.1415 36.7406C66.1539 36.7406 65.2521 36.5139 64.4358 36.0604C63.6196 35.5969 62.9697 34.957 62.486 34.1408C62.0124 33.3246 61.7756 32.4025 61.7756 31.3747C61.7756 30.3469 62.0124 29.4248 62.486 28.6086C62.9697 27.7924 63.6196 27.1576 64.4358 26.7041C65.2621 26.2406 66.164 26.0088 67.1415 26.0088C68.26 26.0088 69.2526 26.2859 70.1192 26.8401C70.9958 27.3843 71.6307 28.1602 72.0237 29.1679H69.9529ZM77.6532 36.7859C76.8672 36.7859 76.1567 36.6096 75.5219 36.2569C74.8871 35.8941 74.3883 35.3903 74.0255 34.7454C73.6627 34.0904 73.4814 33.3346 73.4814 32.4781C73.4814 31.6317 73.6678 30.8809 74.0406 30.2259C74.4135 29.5709 74.9223 29.0671 75.5673 28.7144C76.2122 28.3617 76.9327 28.1854 77.7287 28.1854C78.5248 28.1854 79.2453 28.3617 79.8902 28.7144C80.5351 29.0671 81.044 29.5709 81.4168 30.2259C81.7897 30.8809 81.9761 31.6317 81.9761 32.4781C81.9761 33.3246 81.7846 34.0753 81.4017 34.7303C81.0188 35.3853 80.4948 35.8941 79.8297 36.2569C79.1747 36.6096 78.4492 36.7859 77.6532 36.7859ZM77.6532 35.2895C78.0965 35.2895 78.5097 35.1837 78.8926 34.9721C79.2856 34.7605 79.603 34.4431 79.8449 34.0199C80.0867 33.5966 80.2076 33.0827 80.2076 32.4781C80.2076 31.8735 80.0917 31.3646 79.86 30.9515C79.6282 30.5282 79.3209 30.2108 78.9379 29.9992C78.555 29.7876 78.1419 29.6818 77.6985 29.6818C77.2551 29.6818 76.842 29.7876 76.4591 29.9992C76.0862 30.2108 75.7889 30.5282 75.5673 30.9515C75.3456 31.3646 75.2347 31.8735 75.2347 32.4781C75.2347 33.3749 75.4614 34.0702 75.9149 34.564C76.3784 35.0477 76.9579 35.2895 77.6532 35.2895ZM87.292 36.7859C86.5061 36.7859 85.7956 36.6096 85.1608 36.2569C84.526 35.8941 84.0272 35.3903 83.6644 34.7454C83.3016 34.0904 83.1203 33.3346 83.1203 32.4781C83.1203 31.6317 83.3067 30.8809 83.6795 30.2259C84.0524 29.5709 84.5612 29.0671 85.2062 28.7144C85.8511 28.3617 86.5716 28.1854 87.3676 28.1854C88.1637 28.1854 88.8842 28.3617 89.5291 28.7144C90.174 29.0671 90.6829 29.5709 91.0557 30.2259C91.4286 30.8809 91.615 31.6317 91.615 32.4781C91.615 33.3246 91.4235 34.0753 91.0406 34.7303C90.6577 35.3853 90.1337 35.8941 89.4686 36.2569C88.8136 36.6096 88.0881 36.7859 87.292 36.7859ZM87.292 35.2895C87.7354 35.2895 88.1486 35.1837 88.5315 34.9721C88.9245 34.7605 89.2419 34.4431 89.4838 34.0199C89.7256 33.5966 89.8465 33.0827 89.8465 32.4781C89.8465 31.8735 89.7306 31.3646 89.4989 30.9515C89.2671 30.5282 88.9598 30.2108 88.5768 29.9992C88.1939 29.7876 87.7808 29.6818 87.3374 29.6818C86.894 29.6818 86.4809 29.7876 86.0979 29.9992C85.7251 30.2108 85.4278 30.5282 85.2062 30.9515C84.9845 31.3646 84.8736 31.8735 84.8736 32.4781C84.8736 33.3749 85.1003 34.0702 85.5538 34.564C86.0173 35.0477 86.5967 35.2895 87.292 35.2895ZM96.674 28.1854C97.3189 28.1854 97.8882 28.3164 98.382 28.5784C98.8858 28.8303 99.2788 29.1477 99.561 29.5306V28.3214H101.299V36.7859C101.299 37.5518 101.138 38.232 100.816 38.8265C100.493 39.4311 100.025 39.9047 99.4098 40.2473C98.8052 40.5899 98.0797 40.7612 97.2333 40.7612C96.1046 40.7612 95.1675 40.4942 94.4218 39.9601C93.6761 39.4361 93.2529 38.7207 93.1521 37.8138H94.8602C94.9912 38.2471 95.2683 38.5947 95.6915 38.8567C96.1248 39.1288 96.6387 39.2648 97.2333 39.2648C97.9285 39.2648 98.4878 39.0532 98.911 38.63C99.3443 38.2068 99.561 37.5921 99.561 36.7859V35.3953C99.2688 35.7883 98.8707 36.1209 98.3669 36.3929C97.8731 36.6549 97.3088 36.7859 96.674 36.7859C95.9485 36.7859 95.2834 36.6046 94.6788 36.2418C94.0842 35.8689 93.6106 35.355 93.258 34.7C92.9153 34.035 92.744 33.2842 92.744 32.4479C92.744 31.6115 92.9153 30.8709 93.258 30.2259C93.6106 29.581 94.0842 29.0822 94.6788 28.7295C95.2834 28.3668 95.9485 28.1854 96.674 28.1854ZM99.561 32.4781C99.561 31.9037 99.4401 31.4049 99.1982 30.9817C98.9665 30.5585 98.6591 30.236 98.2762 30.0143C97.8933 29.7926 97.4801 29.6818 97.0368 29.6818C96.5934 29.6818 96.1802 29.7926 95.7973 30.0143C95.4144 30.2259 95.102 30.5434 94.8602 30.9666C94.6284 31.3797 94.5125 31.8735 94.5125 32.4479C94.5125 33.0223 94.6284 33.5261 94.8602 33.9594C95.102 34.3927 95.4144 34.7252 95.7973 34.957C96.1903 35.1787 96.6034 35.2895 97.0368 35.2895C97.4801 35.2895 97.8933 35.1787 98.2762 34.957C98.6591 34.7353 98.9665 34.4129 99.1982 33.9896C99.4401 33.5563 99.561 33.0525 99.561 32.4781ZM105.286 25.4646V36.6499H103.563V25.4646H105.286ZM115.181 32.2816C115.181 32.594 115.161 32.8761 115.121 33.1281H108.757C108.808 33.7931 109.054 34.3272 109.498 34.7303C109.941 35.1333 110.485 35.3349 111.13 35.3349C112.057 35.3349 112.712 34.9469 113.095 34.171H114.954C114.702 34.9368 114.244 35.5666 113.579 36.0604C112.924 36.5441 112.108 36.7859 111.13 36.7859C110.334 36.7859 109.619 36.6096 108.984 36.2569C108.359 35.8941 107.865 35.3903 107.503 34.7454C107.15 34.0904 106.974 33.3346 106.974 32.4781C106.974 31.6216 107.145 30.8709 107.488 30.2259C107.84 29.5709 108.329 29.0671 108.954 28.7144C109.589 28.3617 110.314 28.1854 111.13 28.1854C111.916 28.1854 112.617 28.3567 113.231 28.6993C113.846 29.0419 114.325 29.5256 114.667 30.1504C115.01 30.765 115.181 31.4755 115.181 32.2816ZM113.382 31.7375C113.372 31.1026 113.146 30.5937 112.702 30.2108C112.259 29.8279 111.71 29.6364 111.055 29.6364C110.46 29.6364 109.951 29.8279 109.528 30.2108C109.105 30.5837 108.853 31.0925 108.772 31.7375H113.382ZM128.149 29.2737C128.149 29.8078 128.023 30.3116 127.771 30.7852C127.519 31.2588 127.116 31.6468 126.562 31.9491C126.008 32.2413 125.298 32.3874 124.431 32.3874H122.526V36.6499H120.803V26.1448H124.431C125.237 26.1448 125.917 26.2859 126.471 26.5681C127.036 26.8401 127.454 27.213 127.726 27.6866C128.008 28.1602 128.149 28.6892 128.149 29.2737ZM124.431 30.9817C125.086 30.9817 125.575 30.8356 125.897 30.5434C126.22 30.2411 126.381 29.8178 126.381 29.2737C126.381 28.1249 125.731 27.5505 124.431 27.5505H122.526V30.9817H124.431ZM131.516 25.4646V36.6499H129.793V25.4646H131.516ZM133.204 32.4479C133.204 31.6115 133.375 30.8709 133.718 30.2259C134.07 29.581 134.544 29.0822 135.139 28.7295C135.743 28.3668 136.408 28.1854 137.134 28.1854C137.789 28.1854 138.358 28.3164 138.842 28.5784C139.336 28.8303 139.729 29.1477 140.021 29.5306V28.3214H141.759V36.6499H140.021V35.4105C139.729 35.8035 139.33 36.1309 138.827 36.3929C138.323 36.6549 137.748 36.7859 137.104 36.7859C136.388 36.7859 135.733 36.6046 135.139 36.2418C134.544 35.8689 134.07 35.355 133.718 34.7C133.375 34.035 133.204 33.2842 133.204 32.4479ZM140.021 32.4781C140.021 31.9037 139.9 31.4049 139.658 30.9817C139.426 30.5585 139.119 30.236 138.736 30.0143C138.353 29.7926 137.94 29.6818 137.497 29.6818C137.053 29.6818 136.64 29.7926 136.257 30.0143C135.874 30.2259 135.562 30.5434 135.32 30.9666C135.088 31.3797 134.972 31.8735 134.972 32.4479C134.972 33.0223 135.088 33.5261 135.32 33.9594C135.562 34.3927 135.874 34.7252 136.257 34.957C136.65 35.1787 137.063 35.2895 137.497 35.2895C137.94 35.2895 138.353 35.1787 138.736 34.957C139.119 34.7353 139.426 34.4129 139.658 33.9896C139.9 33.5563 140.021 33.0525 140.021 32.4781ZM151.519 28.3214L146.41 40.5647H144.627L146.32 36.5139L143.04 28.3214H144.959L147.302 34.6698L149.736 28.3214H151.519Z" fill="black"/>
<path d="M43.3477 22.173C44.5699 23.0834 44.5699 25.1339 43.4242 26.0444L40.1998 27.8703L35.4214 24.1087L40.2115 20.4189L43.3477 22.173Z" fill="#FFC801"/>
<path d="M40.2247 27.8525L40.224 27.8518H40.2233L35.417 24.1107L35.4155 24.1093L35.4148 24.11L35.4163 24.1115L35.4148 24.11L35.4127 24.1079L35.3958 24.1207L17.6975 37.6004V38.1637C17.6974 38.9079 17.8716 39.7016 18.4659 39.9772C19.249 40.3403 20.3915 39.6306 20.3915 39.6306L40.2247 27.8525Z" fill="#F93647"/>
<path d="M35.3958 24.1205L17.6975 37.6002V10.3389L35.3915 24.1148L35.3958 24.1205Z" fill="#00D3FF"/>
<path d="M17.6975 10.0664V10.3392L35.3914 24.1151L35.3958 24.1207L35.4127 24.1079L35.4142 24.1072L35.4213 24.1015L40.2114 20.4395C40.2114 20.4395 24.8057 11.2293 20.3397 8.57301C20.1455 8.45745 19.6799 8.16433 19.1216 8.34713C18.4529 8.56621 17.6975 9.36174 17.6975 10.0664Z" fill="#00EF77"/>
</svg>
