<svg width="164" height="48" viewBox="0 0 164 48" fill="none" xmlns="http://www.w3.org/2000/svg">
<rect x="1" y="0.375" width="162" height="47.25" rx="5.625" stroke="black" stroke-width="0.75"/>
<path d="M63.2708 9.72676C63.9548 9.72676 64.5458 9.85576 65.0438 10.1138C65.5478 10.3658 65.9318 10.7288 66.1958 11.2028C66.4658 11.6768 66.6008 12.2348 66.6008 12.8768C66.6008 13.5188 66.4658 14.0768 66.1958 14.5508C65.9318 15.0188 65.5478 15.3788 65.0438 15.6308C64.5458 15.8768 63.9548 15.9998 63.2708 15.9998H61.3178V9.72676H63.2708ZM63.2708 15.3248C64.0808 15.3248 64.6988 15.1118 65.1248 14.6858C65.5508 14.2538 65.7638 13.6508 65.7638 12.8768C65.7638 12.0968 65.5478 11.4878 65.1158 11.0498C64.6898 10.6118 64.0748 10.3928 63.2708 10.3928H62.1368V15.3248H63.2708ZM69.832 16.0808C69.37 16.0808 68.95 15.9758 68.572 15.7658C68.2 15.5558 67.906 15.2588 67.69 14.8748C67.48 14.4848 67.375 14.0348 67.375 13.5248C67.375 13.0208 67.483 12.5768 67.699 12.1928C67.921 11.8028 68.221 11.5058 68.599 11.3018C68.977 11.0918 69.4 10.9868 69.868 10.9868C70.336 10.9868 70.759 11.0918 71.137 11.3018C71.515 11.5058 71.812 11.7998 72.028 12.1838C72.25 12.5678 72.361 13.0148 72.361 13.5248C72.361 14.0348 72.247 14.4848 72.019 14.8748C71.797 15.2588 71.494 15.5558 71.11 15.7658C70.726 15.9758 70.3 16.0808 69.832 16.0808ZM69.832 15.3608C70.126 15.3608 70.402 15.2918 70.66 15.1538C70.918 15.0158 71.125 14.8088 71.281 14.5328C71.443 14.2568 71.524 13.9208 71.524 13.5248C71.524 13.1288 71.446 12.7928 71.29 12.5168C71.134 12.2408 70.93 12.0368 70.678 11.9048C70.426 11.7668 70.153 11.6978 69.859 11.6978C69.559 11.6978 69.283 11.7668 69.031 11.9048C68.785 12.0368 68.587 12.2408 68.437 12.5168C68.287 12.7928 68.212 13.1288 68.212 13.5248C68.212 13.9268 68.284 14.2658 68.428 14.5418C68.578 14.8178 68.776 15.0248 69.022 15.1628C69.268 15.2948 69.538 15.3608 69.832 15.3608ZM80.0079 11.0678L78.4689 15.9998H77.6229L76.4349 12.0848L75.2469 15.9998H74.4009L72.8529 11.0678H73.6899L74.8239 15.2078L76.0479 11.0678H76.8849L78.0819 15.2168L79.1979 11.0678H80.0079ZM83.2237 10.9778C83.8237 10.9778 84.3097 11.1608 84.6817 11.5268C85.0537 11.8868 85.2397 12.4088 85.2397 13.0928V15.9998H84.4297V13.2098C84.4297 12.7178 84.3067 12.3428 84.0607 12.0848C83.8147 11.8208 83.4787 11.6888 83.0527 11.6888C82.6207 11.6888 82.2757 11.8238 82.0177 12.0938C81.7657 12.3638 81.6397 12.7568 81.6397 13.2728V15.9998H80.8207V11.0678H81.6397V11.7698C81.8017 11.5178 82.0207 11.3228 82.2967 11.1848C82.5787 11.0468 82.8877 10.9778 83.2237 10.9778ZM87.3965 9.33976V15.9998H86.5775V9.33976H87.3965ZM90.9434 16.0808C90.4814 16.0808 90.0614 15.9758 89.6834 15.7658C89.3114 15.5558 89.0174 15.2588 88.8014 14.8748C88.5914 14.4848 88.4864 14.0348 88.4864 13.5248C88.4864 13.0208 88.5944 12.5768 88.8104 12.1928C89.0324 11.8028 89.3324 11.5058 89.7104 11.3018C90.0884 11.0918 90.5114 10.9868 90.9794 10.9868C91.4474 10.9868 91.8704 11.0918 92.2484 11.3018C92.6264 11.5058 92.9234 11.7998 93.1394 12.1838C93.3614 12.5678 93.4724 13.0148 93.4724 13.5248C93.4724 14.0348 93.3584 14.4848 93.1304 14.8748C92.9084 15.2588 92.6054 15.5558 92.2214 15.7658C91.8374 15.9758 91.4114 16.0808 90.9434 16.0808ZM90.9434 15.3608C91.2374 15.3608 91.5134 15.2918 91.7714 15.1538C92.0294 15.0158 92.2364 14.8088 92.3924 14.5328C92.5544 14.2568 92.6354 13.9208 92.6354 13.5248C92.6354 13.1288 92.5574 12.7928 92.4014 12.5168C92.2454 12.2408 92.0414 12.0368 91.7894 11.9048C91.5374 11.7668 91.2644 11.6978 90.9704 11.6978C90.6704 11.6978 90.3944 11.7668 90.1424 11.9048C89.8964 12.0368 89.6984 12.2408 89.5484 12.5168C89.3984 12.7928 89.3234 13.1288 89.3234 13.5248C89.3234 13.9268 89.3954 14.2658 89.5394 14.5418C89.6894 14.8178 89.8874 15.0248 90.1334 15.1628C90.3794 15.2948 90.6494 15.3608 90.9434 15.3608ZM94.2432 13.5158C94.2432 13.0118 94.3452 12.5708 94.5492 12.1928C94.7532 11.8088 95.0322 11.5118 95.3862 11.3018C95.7462 11.0918 96.1452 10.9868 96.5832 10.9868C97.0152 10.9868 97.3902 11.0798 97.7082 11.2658C98.0262 11.4518 98.2632 11.6858 98.4192 11.9678V11.0678H99.2472V15.9998H98.4192V15.0818C98.2572 15.3698 98.0142 15.6098 97.6902 15.8018C97.3722 15.9878 97.0002 16.0808 96.5742 16.0808C96.1362 16.0808 95.7402 15.9728 95.3862 15.7568C95.0322 15.5408 94.7532 15.2378 94.5492 14.8478C94.3452 14.4578 94.2432 14.0138 94.2432 13.5158ZM98.4192 13.5248C98.4192 13.1528 98.3442 12.8288 98.1942 12.5528C98.0442 12.2768 97.8402 12.0668 97.5822 11.9228C97.3302 11.7728 97.0512 11.6978 96.7452 11.6978C96.4392 11.6978 96.1602 11.7698 95.9082 11.9138C95.6562 12.0578 95.4552 12.2678 95.3052 12.5438C95.1552 12.8198 95.0802 13.1438 95.0802 13.5158C95.0802 13.8938 95.1552 14.2238 95.3052 14.5058C95.4552 14.7818 95.6562 14.9948 95.9082 15.1448C96.1602 15.2888 96.4392 15.3608 96.7452 15.3608C97.0512 15.3608 97.3302 15.2888 97.5822 15.1448C97.8402 14.9948 98.0442 14.7818 98.1942 14.5058C98.3442 14.2238 98.4192 13.8968 98.4192 13.5248ZM100.325 13.5158C100.325 13.0118 100.427 12.5708 100.631 12.1928C100.835 11.8088 101.114 11.5118 101.468 11.3018C101.828 11.0918 102.23 10.9868 102.674 10.9868C103.058 10.9868 103.415 11.0768 103.745 11.2568C104.075 11.4308 104.327 11.6618 104.501 11.9498V9.33976H105.329V15.9998H104.501V15.0728C104.339 15.3668 104.099 15.6098 103.781 15.8018C103.463 15.9878 103.091 16.0808 102.665 16.0808C102.227 16.0808 101.828 15.9728 101.468 15.7568C101.114 15.5408 100.835 15.2378 100.631 14.8478C100.427 14.4578 100.325 14.0138 100.325 13.5158ZM104.501 13.5248C104.501 13.1528 104.426 12.8288 104.276 12.5528C104.126 12.2768 103.922 12.0668 103.664 11.9228C103.412 11.7728 103.133 11.6978 102.827 11.6978C102.521 11.6978 102.242 11.7698 101.99 11.9138C101.738 12.0578 101.537 12.2678 101.387 12.5438C101.237 12.8198 101.162 13.1438 101.162 13.5158C101.162 13.8938 101.237 14.2238 101.387 14.5058C101.537 14.7818 101.738 14.9948 101.99 15.1448C102.242 15.2888 102.521 15.3608 102.827 15.3608C103.133 15.3608 103.412 15.2888 103.664 15.1448C103.922 14.9948 104.126 14.7818 104.276 14.5058C104.426 14.2238 104.501 13.8968 104.501 13.5248ZM111.264 16.0808C110.802 16.0808 110.382 15.9758 110.004 15.7658C109.632 15.5558 109.338 15.2588 109.122 14.8748C108.912 14.4848 108.807 14.0348 108.807 13.5248C108.807 13.0208 108.915 12.5768 109.131 12.1928C109.353 11.8028 109.653 11.5058 110.031 11.3018C110.409 11.0918 110.832 10.9868 111.3 10.9868C111.768 10.9868 112.191 11.0918 112.569 11.3018C112.947 11.5058 113.244 11.7998 113.46 12.1838C113.682 12.5678 113.793 13.0148 113.793 13.5248C113.793 14.0348 113.679 14.4848 113.451 14.8748C113.229 15.2588 112.926 15.5558 112.542 15.7658C112.158 15.9758 111.732 16.0808 111.264 16.0808ZM111.264 15.3608C111.558 15.3608 111.834 15.2918 112.092 15.1538C112.35 15.0158 112.557 14.8088 112.713 14.5328C112.875 14.2568 112.956 13.9208 112.956 13.5248C112.956 13.1288 112.878 12.7928 112.722 12.5168C112.566 12.2408 112.362 12.0368 112.11 11.9048C111.858 11.7668 111.585 11.6978 111.291 11.6978C110.991 11.6978 110.715 11.7668 110.463 11.9048C110.217 12.0368 110.019 12.2408 109.869 12.5168C109.719 12.7928 109.644 13.1288 109.644 13.5248C109.644 13.9268 109.716 14.2658 109.86 14.5418C110.01 14.8178 110.208 15.0248 110.454 15.1628C110.7 15.2948 110.97 15.3608 111.264 15.3608ZM117.273 10.9778C117.873 10.9778 118.359 11.1608 118.731 11.5268C119.103 11.8868 119.289 12.4088 119.289 13.0928V15.9998H118.479V13.2098C118.479 12.7178 118.356 12.3428 118.11 12.0848C117.864 11.8208 117.528 11.6888 117.102 11.6888C116.67 11.6888 116.325 11.8238 116.067 12.0938C115.815 12.3638 115.689 12.7568 115.689 13.2728V15.9998H114.87V11.0678H115.689V11.7698C115.851 11.5178 116.07 11.3228 116.346 11.1848C116.628 11.0468 116.937 10.9778 117.273 10.9778Z" fill="black"/>
<path d="M68.035 34.3698H63.67L62.92 36.4998H61.135L64.87 26.0598H66.85L70.585 36.4998H68.785L68.035 34.3698ZM67.555 32.9748L65.86 28.1298L64.15 32.9748H67.555ZM73.919 29.4498C74.209 29.0698 74.604 28.7498 75.104 28.4898C75.604 28.2298 76.169 28.0998 76.799 28.0998C77.519 28.0998 78.174 28.2798 78.764 28.6398C79.364 28.9898 79.834 29.4848 80.174 30.1248C80.514 30.7648 80.684 31.4998 80.684 32.3298C80.684 33.1598 80.514 33.9048 80.174 34.5648C79.834 35.2148 79.364 35.7248 78.764 36.0948C78.174 36.4548 77.519 36.6348 76.799 36.6348C76.169 36.6348 75.609 36.5098 75.119 36.2598C74.629 35.9998 74.229 35.6798 73.919 35.2998V40.4298H72.209V28.2348H73.919V29.4498ZM78.944 32.3298C78.944 31.7598 78.824 31.2698 78.584 30.8598C78.354 30.4398 78.044 30.1248 77.654 29.9148C77.274 29.6948 76.864 29.5848 76.424 29.5848C75.994 29.5848 75.584 29.6948 75.194 29.9148C74.814 30.1348 74.504 30.4548 74.264 30.8748C74.034 31.2948 73.919 31.7898 73.919 32.3598C73.919 32.9298 74.034 33.4298 74.264 33.8598C74.504 34.2798 74.814 34.5998 75.194 34.8198C75.584 35.0398 75.994 35.1498 76.424 35.1498C76.864 35.1498 77.274 35.0398 77.654 34.8198C78.044 34.5898 78.354 34.2598 78.584 33.8298C78.824 33.3998 78.944 32.8998 78.944 32.3298ZM84.085 29.4498C84.375 29.0698 84.77 28.7498 85.27 28.4898C85.77 28.2298 86.335 28.0998 86.965 28.0998C87.685 28.0998 88.34 28.2798 88.93 28.6398C89.53 28.9898 90 29.4848 90.34 30.1248C90.68 30.7648 90.85 31.4998 90.85 32.3298C90.85 33.1598 90.68 33.9048 90.34 34.5648C90 35.2148 89.53 35.7248 88.93 36.0948C88.34 36.4548 87.685 36.6348 86.965 36.6348C86.335 36.6348 85.775 36.5098 85.285 36.2598C84.795 35.9998 84.395 35.6798 84.085 35.2998V40.4298H82.375V28.2348H84.085V29.4498ZM89.11 32.3298C89.11 31.7598 88.99 31.2698 88.75 30.8598C88.52 30.4398 88.21 30.1248 87.82 29.9148C87.44 29.6948 87.03 29.5848 86.59 29.5848C86.16 29.5848 85.75 29.6948 85.36 29.9148C84.98 30.1348 84.67 30.4548 84.43 30.8748C84.2 31.2948 84.085 31.7898 84.085 32.3598C84.085 32.9298 84.2 33.4298 84.43 33.8598C84.67 34.2798 84.98 34.5998 85.36 34.8198C85.75 35.0398 86.16 35.1498 86.59 35.1498C87.03 35.1498 87.44 35.0398 87.82 34.8198C88.21 34.5898 88.52 34.2598 88.75 33.8298C88.99 33.3998 89.11 32.8998 89.11 32.3298ZM99.8725 36.6048C99.1725 36.6048 98.5425 36.4848 97.9825 36.2448C97.4225 35.9948 96.9825 35.6448 96.6625 35.1948C96.3425 34.7448 96.1825 34.2198 96.1825 33.6198H98.0125C98.0525 34.0698 98.2275 34.4398 98.5375 34.7298C98.8575 35.0198 99.3025 35.1648 99.8725 35.1648C100.463 35.1648 100.923 35.0248 101.253 34.7448C101.583 34.4548 101.748 34.0848 101.748 33.6348C101.748 33.2848 101.643 32.9998 101.433 32.7798C101.233 32.5598 100.978 32.3898 100.668 32.2698C100.368 32.1498 99.9475 32.0198 99.4075 31.8798C98.7275 31.6998 98.1725 31.5198 97.7425 31.3398C97.3225 31.1498 96.9625 30.8598 96.6625 30.4698C96.3625 30.0798 96.2125 29.5598 96.2125 28.9098C96.2125 28.3098 96.3625 27.7848 96.6625 27.3348C96.9625 26.8848 97.3825 26.5398 97.9225 26.2998C98.4625 26.0598 99.0875 25.9398 99.7975 25.9398C100.808 25.9398 101.633 26.1948 102.273 26.7048C102.923 27.2048 103.283 27.8948 103.353 28.7748H101.463C101.433 28.3948 101.253 28.0698 100.923 27.7998C100.593 27.5298 100.158 27.3948 99.6175 27.3948C99.1275 27.3948 98.7275 27.5198 98.4175 27.7698C98.1075 28.0198 97.9525 28.3798 97.9525 28.8498C97.9525 29.1698 98.0475 29.4348 98.2375 29.6448C98.4375 29.8448 98.6875 30.0048 98.9875 30.1248C99.2875 30.2448 99.6975 30.3748 100.218 30.5148C100.908 30.7048 101.468 30.8948 101.898 31.0848C102.338 31.2748 102.708 31.5698 103.008 31.9698C103.318 32.3598 103.473 32.8848 103.473 33.5448C103.473 34.0748 103.328 34.5748 103.038 35.0448C102.758 35.5148 102.343 35.8948 101.793 36.1848C101.253 36.4648 100.613 36.6048 99.8725 36.6048ZM107.485 29.6298V34.2048C107.485 34.5148 107.555 34.7398 107.695 34.8798C107.845 35.0098 108.095 35.0748 108.445 35.0748H109.495V36.4998H108.145C107.375 36.4998 106.785 36.3198 106.375 35.9598C105.965 35.5998 105.76 35.0148 105.76 34.2048V29.6298H104.785V28.2348H105.76V26.1798H107.485V28.2348H109.495V29.6298H107.485ZM114.656 36.6348C113.876 36.6348 113.171 36.4598 112.541 36.1098C111.911 35.7498 111.416 35.2498 111.056 34.6098C110.696 33.9598 110.516 33.2098 110.516 32.3598C110.516 31.5198 110.701 30.7748 111.071 30.1248C111.441 29.4748 111.946 28.9748 112.586 28.6248C113.226 28.2748 113.941 28.0998 114.731 28.0998C115.521 28.0998 116.236 28.2748 116.876 28.6248C117.516 28.9748 118.021 29.4748 118.391 30.1248C118.761 30.7748 118.946 31.5198 118.946 32.3598C118.946 33.1998 118.756 33.9448 118.376 34.5948C117.996 35.2448 117.476 35.7498 116.816 36.1098C116.166 36.4598 115.446 36.6348 114.656 36.6348ZM114.656 35.1498C115.096 35.1498 115.506 35.0448 115.886 34.8348C116.276 34.6248 116.591 34.3098 116.831 33.8898C117.071 33.4698 117.191 32.9598 117.191 32.3598C117.191 31.7598 117.076 31.2548 116.846 30.8448C116.616 30.4248 116.311 30.1098 115.931 29.8998C115.551 29.6898 115.141 29.5848 114.701 29.5848C114.261 29.5848 113.851 29.6898 113.471 29.8998C113.101 30.1098 112.806 30.4248 112.586 30.8448C112.366 31.2548 112.256 31.7598 112.256 32.3598C112.256 33.2498 112.481 33.9398 112.931 34.4298C113.391 34.9098 113.966 35.1498 114.656 35.1498ZM122.347 29.4348C122.597 29.0148 122.927 28.6898 123.337 28.4598C123.757 28.2198 124.252 28.0998 124.822 28.0998V29.8698H124.387C123.717 29.8698 123.207 30.0398 122.857 30.3798C122.517 30.7198 122.347 31.3098 122.347 32.1498V36.4998H120.637V28.2348H122.347V29.4348ZM133.969 32.1648C133.969 32.4748 133.949 32.7548 133.909 33.0048H127.594C127.644 33.6648 127.889 34.1948 128.329 34.5948C128.769 34.9948 129.309 35.1948 129.949 35.1948C130.869 35.1948 131.519 34.8098 131.899 34.0398H133.744C133.494 34.7998 133.039 35.4248 132.379 35.9148C131.729 36.3948 130.919 36.6348 129.949 36.6348C129.159 36.6348 128.449 36.4598 127.819 36.1098C127.199 35.7498 126.709 35.2498 126.349 34.6098C125.999 33.9598 125.824 33.2098 125.824 32.3598C125.824 31.5098 125.994 30.7648 126.334 30.1248C126.684 29.4748 127.169 28.9748 127.789 28.6248C128.419 28.2748 129.139 28.0998 129.949 28.0998C130.729 28.0998 131.424 28.2698 132.034 28.6098C132.644 28.9498 133.119 29.4298 133.459 30.0498C133.799 30.6598 133.969 31.3648 133.969 32.1648ZM132.184 31.6248C132.174 30.9948 131.949 30.4898 131.509 30.1098C131.069 29.7298 130.524 29.5398 129.874 29.5398C129.284 29.5398 128.779 29.7298 128.359 30.1098C127.939 30.4798 127.689 30.9848 127.609 31.6248H132.184Z" fill="black"/>
<path fill-rule="evenodd" clip-rule="evenodd" d="M36.0834 7.66357C36.3368 9.36199 35.6409 11.0241 34.7232 12.2007C33.7403 13.4622 32.0475 14.4386 30.4124 14.3873C30.1143 12.7616 30.8811 11.0893 31.8099 9.96197C32.8338 8.71914 34.5853 7.76606 36.0834 7.66357ZM40.7411 32.6943C41.5871 31.4086 41.901 30.7601 42.5579 29.3049C37.7896 27.5021 37.0229 20.7635 41.7427 18.1762C40.3014 16.3809 38.2797 15.3421 36.3717 15.3421C34.9942 15.3421 34.0507 15.6991 33.1932 16.0234C32.479 16.2936 31.8245 16.5412 31.0286 16.5412C30.1686 16.5412 29.4067 16.2696 28.6087 15.9851C27.7312 15.6724 26.8101 15.344 25.6669 15.344C23.5222 15.344 21.2415 16.6455 19.7956 18.8722C17.7618 22.0035 18.1065 27.8953 21.4046 32.9151C22.5841 34.7113 24.1586 36.7302 26.2194 36.7488C27.0728 36.7571 27.6409 36.504 28.2559 36.23C28.9604 35.9162 29.7263 35.575 31.0528 35.5675C32.3875 35.56 33.141 35.9049 33.8364 36.2232C34.4355 36.4975 34.9914 36.7519 35.8387 36.7442C37.8996 36.7255 39.5626 34.4896 40.7411 32.6943Z" fill="black"/>
</svg>
