<svg width="22" height="22" viewBox="0 0 22 22" fill="none" xmlns="http://www.w3.org/2000/svg">
<path d="M19.5348 14.8623L16.533 14.5196C15.8121 14.4368 15.103 14.685 14.5948 15.1932L12.4203 17.3677C9.07571 15.6659 6.3339 12.9359 4.63208 9.57956L6.81844 7.39319C7.32662 6.88501 7.57481 6.17592 7.49208 5.45501L7.14935 2.47683C7.00753 1.28319 6.00299 0.38501 4.79753 0.38501H2.75299C1.41753 0.38501 0.306624 1.49592 0.389351 2.83137C1.01571 12.9241 9.08753 20.9841 19.1684 21.6105C20.5039 21.6932 21.6148 20.5823 21.6148 19.2468V17.2023C21.6266 16.0086 20.7284 15.0041 19.5348 14.8623Z" fill="#14437A"/>
</svg>
