<svg width="82" height="112" viewBox="0 0 82 112" fill="none" xmlns="http://www.w3.org/2000/svg">
<path d="M11.1797 98.5901C10.7643 98.5901 10.4276 98.4611 10.1697 98.2033C9.91179 97.9454 9.78284 97.6087 9.78284 97.1932V90.703C9.78284 90.4308 9.87597 90.2087 10.0622 90.0368C10.2485 89.8649 10.4849 89.7789 10.7714 89.7789C11.0436 89.7789 11.2657 89.8649 11.4376 90.0368C11.6239 90.2087 11.717 90.4308 11.717 90.703V96.1831C11.717 96.6129 11.9319 96.8278 12.3617 96.8278H14.2744C14.5323 96.8278 14.74 96.9138 14.8976 97.0857C15.0696 97.2433 15.1555 97.4511 15.1555 97.709C15.1555 97.9669 15.0696 98.1818 14.8976 98.3537C14.74 98.5113 14.5323 98.5901 14.2744 98.5901H11.1797ZM16.2494 93.0025C16.2494 92.716 16.3497 92.5011 16.5502 92.3578C16.7508 92.2145 16.9801 92.1429 17.2379 92.1429C17.4385 92.1429 17.6104 92.2002 17.7537 92.3148C17.9113 92.4151 18.0188 92.5584 18.0761 92.7446L19.4085 95.9897C19.4801 96.176 19.5804 96.2691 19.7094 96.2691C19.8383 96.2691 19.9314 96.176 19.9888 95.9897L21.1493 92.7446C21.2209 92.544 21.3355 92.3936 21.4931 92.2933C21.665 92.193 21.8441 92.1429 22.0304 92.1429C22.2739 92.1429 22.496 92.2217 22.6966 92.3793C22.9115 92.5369 23.0189 92.7446 23.0189 93.0025C23.0189 93.1458 22.9903 93.2819 22.933 93.4108L19.5804 101.147C19.4801 101.362 19.3512 101.513 19.1936 101.599C19.0503 101.699 18.8999 101.749 18.7423 101.749C18.4844 101.749 18.248 101.656 18.0331 101.47C17.8325 101.298 17.7322 101.09 17.7322 100.847C17.7322 100.718 17.7609 100.603 17.8182 100.503L18.9787 98.4397C18.7351 98.368 18.5417 98.1889 18.3984 97.9024L16.3138 93.3893C16.2709 93.2604 16.2494 93.1314 16.2494 93.0025ZM30.3464 98.805C30.0742 98.805 29.845 98.7262 29.6587 98.5686C29.4868 98.411 29.4008 98.2104 29.4008 97.9669V95.345C29.4008 94.8149 29.2791 94.4352 29.0355 94.206C28.8063 93.9767 28.5197 93.8621 28.1759 93.8621C27.8177 93.8621 27.5168 93.9767 27.2733 94.206C27.044 94.4352 26.9008 94.7003 26.8435 95.0011V97.8809C26.8435 98.1245 26.7503 98.3322 26.5641 98.5041C26.3921 98.6617 26.1772 98.7405 25.9194 98.7405C25.6471 98.7405 25.4179 98.6617 25.2316 98.5041C25.0454 98.3465 24.9523 98.1459 24.9523 97.9024V93.0885C24.9523 92.8592 25.0382 92.6658 25.2102 92.5082C25.3964 92.3363 25.6328 92.2503 25.9194 92.2503C26.1486 92.2503 26.342 92.3148 26.4996 92.4437C26.6572 92.5584 26.7647 92.7088 26.822 92.895C27.2088 92.3936 27.7962 92.1429 28.5842 92.1429C29.3865 92.1429 30.0384 92.3793 30.5399 92.8521C31.0413 93.3249 31.292 94.077 31.292 95.1086V98.0098C31.292 98.2391 31.1989 98.4325 31.0127 98.5901C30.8407 98.7334 30.6187 98.805 30.3464 98.805ZM34.7331 98.805C34.4608 98.805 34.2316 98.7262 34.0454 98.5686C33.8591 98.411 33.766 98.2104 33.766 97.9669V89.9723C33.766 89.7431 33.8519 89.5497 34.0239 89.3921C34.2101 89.2201 34.4465 89.1342 34.7331 89.1342C35.0053 89.1342 35.2274 89.2201 35.3993 89.3921C35.5712 89.5497 35.6572 89.7502 35.6572 89.9938V93.6902C35.6572 93.8621 35.7073 93.9481 35.8076 93.9481C35.8363 93.9481 35.8936 93.9194 35.9795 93.8621L38.0641 92.3148C38.2361 92.2002 38.4223 92.1429 38.6229 92.1429C38.8664 92.1429 39.067 92.2288 39.2246 92.4008C39.3822 92.5727 39.461 92.7733 39.461 93.0025C39.461 93.3177 39.3178 93.5684 39.0312 93.7547L37.3334 94.8722C37.1902 94.9725 37.1185 95.0799 37.1185 95.1946C37.1185 95.3092 37.1758 95.4023 37.2905 95.4739L39.2461 97.2362C39.3751 97.3365 39.461 97.4511 39.504 97.58C39.547 97.709 39.5685 97.8307 39.5685 97.9454C39.5685 98.1746 39.4753 98.3752 39.2891 98.5471C39.1172 98.719 38.9094 98.805 38.6659 98.805C38.4223 98.805 38.2074 98.7119 38.0211 98.5256L35.9151 96.4625C35.8721 96.4195 35.8219 96.398 35.7646 96.398C35.693 96.398 35.6572 96.4553 35.6572 96.57V97.9454C35.6572 98.1889 35.564 98.3967 35.3778 98.5686C35.2059 98.7262 34.991 98.805 34.7331 98.805ZM43.7444 98.805C42.7701 98.805 41.9678 98.6044 41.3374 98.2033C41.2085 98.1173 41.1154 98.017 41.0581 97.9024C41.0007 97.7734 40.9721 97.6517 40.9721 97.537C40.9721 97.2935 41.0509 97.0714 41.2085 96.8708C41.3804 96.6703 41.5882 96.57 41.8317 96.57C41.9463 96.57 42.061 96.5986 42.1756 96.6559C42.4335 96.7705 42.7272 96.8708 43.0567 96.9568C43.3862 97.0284 43.6871 97.0642 43.9593 97.0642C44.4894 97.0642 44.7545 96.9425 44.7545 96.6989C44.7545 96.5556 44.69 96.4339 44.561 96.3336C44.4321 96.2189 44.1312 96.1401 43.6584 96.0972C43.4722 96.0828 43.2286 96.0542 42.9277 96.0112C42.6412 95.9682 42.3547 95.8894 42.0681 95.7748C41.7816 95.6459 41.538 95.4596 41.3374 95.216C41.1512 94.9725 41.0581 94.643 41.0581 94.2275C41.0581 93.5828 41.3016 93.0741 41.7887 92.7016C42.2759 92.3291 42.9277 92.1429 43.7444 92.1429C44.2172 92.1429 44.6613 92.193 45.0768 92.2933C45.5066 92.3936 45.829 92.544 46.0439 92.7446C46.2445 92.9309 46.3448 93.1458 46.3448 93.3893C46.3448 93.6042 46.266 93.7977 46.1084 93.9696C45.9508 94.1415 45.7502 94.2275 45.5066 94.2275C45.3777 94.2275 45.2559 94.1988 45.1413 94.1415C44.9694 94.0269 44.7473 93.9409 44.4751 93.8836C44.2172 93.8263 43.9521 93.7977 43.6799 93.7977C43.1355 93.7977 42.8633 93.9123 42.8633 94.1415C42.8633 94.2418 42.9134 94.3349 43.0137 94.4209C43.1283 94.4925 43.379 94.557 43.7659 94.6143C44.0094 94.643 44.2888 94.6859 44.604 94.7432C44.9192 94.7862 45.2201 94.8722 45.5066 95.0011C45.8075 95.1158 46.0582 95.3092 46.2588 95.5814C46.4594 95.8536 46.5597 96.2261 46.5597 96.6989C46.5597 97.3436 46.3018 97.8594 45.786 98.2462C45.2702 98.6187 44.5897 98.805 43.7444 98.805ZM49.0319 98.805C48.8027 98.805 48.5806 98.719 48.3657 98.5471C48.1652 98.3752 48.0649 98.1531 48.0649 97.8809C48.0649 97.7663 48.0864 97.6445 48.1293 97.5156L50.8372 90.4451C50.9375 90.1872 51.1022 89.9938 51.3315 89.8649C51.5607 89.7359 51.7971 89.6714 52.0406 89.6714C52.2985 89.6714 52.5421 89.7359 52.7713 89.8649C53.0149 89.9938 53.1868 90.1872 53.2871 90.4451L56.1884 97.4726C56.217 97.5299 56.2313 97.5872 56.2313 97.6445C56.2313 97.7018 56.2313 97.7591 56.2313 97.8164C56.2313 98.1173 56.131 98.3537 55.9305 98.5256C55.7299 98.6975 55.5078 98.7835 55.2643 98.7835C55.0923 98.7835 54.9204 98.7334 54.7485 98.6331C54.5909 98.5471 54.4763 98.4038 54.4046 98.2033L53.7814 96.527C53.7671 96.441 53.7098 96.398 53.6095 96.398H50.7082C50.6079 96.398 50.5435 96.441 50.5148 96.527L49.9131 98.2247C49.8128 98.411 49.6838 98.5543 49.5262 98.6546C49.3686 98.7549 49.2039 98.805 49.0319 98.805ZM51.4819 94.7218H52.7498C52.8358 94.7218 52.9003 94.6931 52.9433 94.6358C53.0006 94.5642 53.0149 94.4782 52.9862 94.3779L52.4275 92.8521C52.3415 92.6228 52.2341 92.5082 52.1051 92.5082C51.9762 92.5082 51.8687 92.63 51.7828 92.8736L51.2455 94.3994C51.2168 94.4854 51.224 94.5642 51.267 94.6358C51.31 94.6931 51.3816 94.7218 51.4819 94.7218ZM61.7578 98.805C61.1274 98.805 60.5973 98.6116 60.1675 98.2247V100.847C60.1675 101.09 60.0744 101.291 59.8881 101.448C59.7162 101.62 59.5013 101.706 59.2434 101.706C58.9712 101.706 58.7419 101.627 58.5557 101.47C58.3694 101.312 58.2763 101.112 58.2763 100.868V93.0885C58.2763 92.8592 58.3623 92.6658 58.5342 92.5082C58.7205 92.3363 58.9569 92.2503 59.2434 92.2503C59.4583 92.2503 59.6446 92.3076 59.8022 92.4223C59.9598 92.5369 60.0672 92.6801 60.1245 92.8521C60.6116 92.3793 61.1776 92.1429 61.8223 92.1429C62.7679 92.1429 63.5201 92.4437 64.0788 93.0455C64.6519 93.6329 64.9384 94.4352 64.9384 95.4524C64.9384 96.4697 64.6519 97.2863 64.0788 97.9024C63.5057 98.5041 62.7321 98.805 61.7578 98.805ZM61.6074 97.0642C62.0515 97.0642 62.4025 96.9138 62.6604 96.6129C62.9326 96.2977 63.0687 95.9109 63.0687 95.4524C63.0687 94.9796 62.9326 94.6 62.6604 94.3134C62.4025 94.0269 62.0515 93.8836 61.6074 93.8836C61.1776 93.8836 60.8265 94.0269 60.5543 94.3134C60.2964 94.6 60.1675 94.9796 60.1675 95.4524C60.1675 95.9109 60.2964 96.2977 60.5543 96.6129C60.8265 96.9138 61.1776 97.0642 61.6074 97.0642ZM70.5715 98.805C69.9411 98.805 69.411 98.6116 68.9812 98.2247V100.847C68.9812 101.09 68.8881 101.291 68.7018 101.448C68.5299 101.62 68.315 101.706 68.0571 101.706C67.7849 101.706 67.5557 101.627 67.3694 101.47C67.1832 101.312 67.09 101.112 67.09 100.868V93.0885C67.09 92.8592 67.176 92.6658 67.3479 92.5082C67.5342 92.3363 67.7706 92.2503 68.0571 92.2503C68.272 92.2503 68.4583 92.3076 68.6159 92.4223C68.7735 92.5369 68.8809 92.6801 68.9382 92.8521C69.4254 92.3793 69.9913 92.1429 70.636 92.1429C71.5816 92.1429 72.3338 92.4437 72.8925 93.0455C73.4656 93.6329 73.7522 94.4352 73.7522 95.4524C73.7522 96.4697 73.4656 97.2863 72.8925 97.9024C72.3194 98.5041 71.5458 98.805 70.5715 98.805ZM70.4211 97.0642C70.8652 97.0642 71.2162 96.9138 71.4741 96.6129C71.7464 96.2977 71.8825 95.9109 71.8825 95.4524C71.8825 94.9796 71.7464 94.6 71.4741 94.3134C71.2162 94.0269 70.8652 93.8836 70.4211 93.8836C69.9913 93.8836 69.6403 94.0269 69.368 94.3134C69.1102 94.6 68.9812 94.9796 68.9812 95.4524C68.9812 95.9109 69.1102 96.2977 69.368 96.6129C69.6403 96.9138 69.9913 97.0642 70.4211 97.0642Z" fill="#14437A"/>
<rect width="80.5902" height="80.5902" transform="translate(0.776978)" fill="white"/>
<mask id="mask0_3853_7416" style="mask-type:alpha" maskUnits="userSpaceOnUse" x="7" y="6" width="68" height="69">
<circle cx="41.072" cy="40.6311" r="33.915" fill="#D9D9D9"/>
</mask>
<g mask="url(#mask0_3853_7416)">
<path d="M59.0731 38.2432C59.705 36.8624 61.2864 36.0839 62.6535 36.7451C62.9022 36.8654 63.1485 36.99 63.3941 37.1203C64.5508 37.734 64.9674 39.1723 64.2797 40.2865C63.506 41.5401 62.6036 42.6527 61.5712 43.8531C55.9057 50.8165 52.9499 58.153 53.5449 67.1129C53.7512 68.3776 54.0063 69.5958 54.2979 70.8163C54.6019 72.0882 53.9915 73.4238 52.7657 73.8794C48.7639 75.3671 45.0349 75.7212 40.5227 75.6715C40.0092 75.6686 39.4957 75.6656 38.9666 75.6626C38.8208 75.6617 38.675 75.6607 38.5291 75.6597C36.8583 75.6484 35.6667 74.0386 36.141 72.4365C36.3159 71.8436 36.4907 71.2506 36.6708 70.6398C37.103 69.5604 37.1571 69.1746 37.6027 68.2173C37.7419 67.9183 37.8373 67.5998 37.865 67.2711C38.2837 62.3049 37.6541 58.3453 34.5721 54.2852C32.4095 51.7653 30.3799 49.7288 27.7602 48.0959C26.4905 47.3045 25.8918 45.6937 26.6371 44.3963C26.6955 44.2946 26.7544 44.1931 26.814 44.0918C27.4657 42.9824 28.8732 42.5426 29.947 43.2516C31.2181 44.091 32.2257 45.1235 33.3974 46.3921C36.5441 49.5956 39.2198 51.4837 43.5319 52.3619C43.8429 52.4252 44.1648 52.4269 44.4755 52.3621C50.2603 51.1551 53.5501 46.8542 56.8951 42.1665C57.7484 40.8433 58.4604 39.5821 59.0731 38.2432Z" fill="#14437A"/>
<path d="M10.8331 22.0899C10.9096 21.9734 11.038 21.9038 11.1774 21.9038C11.4135 21.9038 11.6044 22.0997 11.5959 22.3357C11.5782 22.8243 11.5605 23.3156 11.5424 23.8182C11.5246 24.6459 11.5069 25.4737 11.4886 26.3264C11.4658 27.1474 11.443 27.9683 11.4195 28.8142C11.6017 30.9611 11.7866 31.9215 13.1163 33.2593C13.411 33.5558 13.7859 33.7619 14.1947 33.8491C19.9477 35.0772 25.7872 31.253 30.5715 28.5787C31.2801 28.1691 31.9887 27.7594 32.7188 27.3374C34.2217 26.6397 34.4868 26.5166 35.6316 26.8609C36.2036 27.0329 36.6921 27.4142 37.0189 27.9143C37.6137 28.8241 37.7697 29.1493 37.823 29.7003C37.8667 30.1517 37.7579 30.6103 37.5018 30.9846C36.3554 32.66 34.5331 33.294 32.6599 34.1889C25.7742 37.6814 18.4688 41.5686 15.5504 49.1358C14.8469 51.483 14.3886 53.8341 14.0787 56.214C13.7858 58.4634 11.1918 59.4078 10.0284 57.4606C7.21217 52.7472 6.07857 46.9343 5.50474 41.56C5.23111 34.7009 7.06301 27.8325 10.8331 22.0899Z" fill="#14437A"/>
<path d="M51.123 8.8376C51.8462 7.73265 53.1595 7.13447 54.393 7.60585C58.124 9.03158 61.5853 10.8924 64.2643 13.8054C65.2744 14.9037 64.8271 16.6023 63.4958 17.2763C63.0321 17.512 62.5684 17.7476 62.0907 17.9904C61.1514 18.4376 60.8712 18.571 60.1085 18.8371C59.2831 19.1252 58.6302 19.7795 58.4141 20.6266C57.507 24.1822 57.1877 27.7818 56.9565 31.4384C56.8763 32.7066 55.8286 33.6974 54.5579 33.6974C54.3116 33.6974 54.0647 33.6974 53.817 33.6974C52.9348 33.6974 52.2118 32.9974 52.1833 32.1157C51.9133 26.7168 51.9046 26.5417 49.236 22.3403C49.0529 22.0521 48.8171 21.7989 48.535 21.6067C46.2848 20.0734 44.6363 19.7022 41.7793 19.7461C41.0509 19.7525 40.3224 19.7588 39.5719 19.7653C38.8181 19.7818 38.0643 19.7983 37.2876 19.8152C36.5211 19.8241 35.7547 19.833 34.965 19.8421C33.687 19.8578 32.4093 19.8776 31.1316 19.9014C30.0815 19.9209 29.1742 19.1694 29.0015 18.1334C28.9588 17.8773 28.9161 17.6206 28.8731 17.3629C28.749 16.6184 29.2605 15.9171 30.0074 15.8079C32.0671 15.5012 34.1244 15.1808 36.182 14.8602C36.888 14.7572 37.5941 14.6542 38.3216 14.548C44.894 13.5682 45.0547 13.5443 50.1191 10.0018C50.3756 9.82236 50.6019 9.5977 50.7808 9.34076C50.9164 9.14589 51.0253 8.9869 51.123 8.8376Z" fill="#14437A"/>
<path d="M63.9314 46.9323C63.8634 45.6998 64.8882 44.6433 66.1218 44.6876C66.3999 44.6976 66.7175 44.7219 67.1469 44.7604C67.6761 44.8078 68.1823 45.0123 68.5848 45.3593C71.0568 47.4898 72.7545 49.7501 73.5076 52.9608C73.5809 53.2732 73.5869 53.5985 73.5257 53.9134C72.3113 60.1647 67.2819 65.1819 62.4312 69.0376C61.7843 69.4775 60.9573 69.6312 60.2501 69.2967C59.1429 68.7728 58.591 68.0896 57.7768 66.7989C57.6856 66.6544 57.6086 66.5004 57.5502 66.3398C56.3356 62.9948 56.3491 59.2535 56.7683 55.7437C56.8019 55.4622 56.8835 55.1877 57.0056 54.9319C57.5648 53.7606 57.7294 53.452 58.2621 52.735C58.5985 52.2822 59.0765 51.9525 59.6179 51.7942C60.0214 51.6761 60.2985 51.6034 60.5698 51.5517C61.487 51.377 62.408 51.8415 62.9214 52.6213C64.2206 54.5946 65.044 56.4234 65.6895 58.7301C65.8655 59.3589 66.5187 59.7307 67.1381 59.5243C67.6178 59.3644 67.9402 58.8983 67.8917 58.395C67.6452 55.84 67.0404 54.033 65.6254 51.6746C64.5905 49.9379 64.0243 48.6147 63.9314 46.9323Z" fill="#EBB834"/>
<path d="M69.9249 24.5245C72.2805 25.5274 73.8796 26.7317 75.1314 28.9454C75.2 29.0668 75.2569 29.1948 75.3024 29.3266C76.9033 33.9626 76.9359 39.0849 76.4992 43.9381C76.4848 44.0974 76.4301 44.251 76.3413 44.3841C76.1051 44.7384 75.9673 44.9451 75.8288 45.1529C75.57 45.541 74.9747 45.4446 74.8517 44.9946C73.2259 39.5512 70.7005 36.6722 65.8657 33.7895C64.4718 32.9085 63.6429 32.1982 62.9201 30.8282C62.7798 30.5623 62.701 30.2685 62.671 29.9694C62.4986 28.2511 62.4384 26.889 63.0142 25.345C63.2172 24.8004 63.6477 24.3656 64.198 24.1786C66.1078 23.5295 67.9267 23.9416 69.9249 24.5245Z" fill="#EBB834"/>
<path d="M21.4557 51.833C21.8763 51.9676 22.2587 52.2095 22.549 52.5422C25.5651 55.9999 25.507 59.0475 25.4812 63.6707C25.3907 65.4228 25.1461 66.9078 24.7053 68.446C24.3722 69.6087 23.209 70.3649 22.0492 70.0221C20.1877 69.4718 18.9115 68.4033 17.3375 66.9179C17.0189 66.6172 16.776 66.2419 16.6583 65.8199C16.0807 63.7484 16.0775 61.8064 16.0754 59.6192C16.0661 58.7552 16.0568 57.8911 16.0472 57.0009C16.1682 55.1287 16.2813 54.0276 17.136 52.6134C17.367 52.2311 17.7139 51.9277 18.1292 51.7634C19.3627 51.2754 20.1635 51.4191 21.4557 51.833Z" fill="#4A9C88"/>
<path d="M28.2421 61.5655C28.4582 59.9804 30.2323 58.5853 31.4137 59.6639C31.7665 59.986 32.0957 60.4473 32.6107 61.19C32.6982 61.3162 32.7754 61.45 32.8376 61.5904C34.4036 65.1273 34.2368 68.8972 33.9152 72.7012C33.8979 72.905 33.8431 73.101 33.7516 73.284C33.4424 73.9025 32.7733 74.2612 32.0883 74.1662C30.9795 74.0125 29.9032 73.8435 28.8279 73.6021C27.5674 73.319 26.8079 72.0826 26.9825 70.8027C27.3994 67.7455 27.8175 64.6792 28.2421 61.5655Z" fill="#4A9C88"/>
<path d="M28.3722 7.14993C29.5074 6.80504 29.8419 8.36099 29.0562 9.25002C26.5155 12.3275 25.8105 15.4316 25.0841 19.2905C24.8192 20.2266 24.7447 20.4901 24.2375 21.0504C23.7282 21.6132 22.97 21.9076 22.2151 21.8273C21.8024 21.7834 21.5054 21.7132 21.0277 21.5573C20.4435 21.3666 19.9432 20.9682 19.6565 20.4247C18.6856 18.5844 18.3211 16.8048 18.3055 14.6733C18.3034 14.3937 18.3481 14.1137 18.4549 13.8553C19.481 11.3754 21.809 10.3822 24.1294 9.0683C26.3507 7.98612 27.5616 7.39621 28.3722 7.14993Z" fill="#4EADE2"/>
<path d="M35.83 6.62663C36.2283 5.9115 36.9843 5.47822 37.8017 5.43319C39.0376 5.36512 40.2289 5.35496 41.5053 5.40088C41.9681 5.40975 42.4309 5.41862 42.9078 5.42775C43.0607 5.43085 43.2136 5.43417 43.3665 5.43767C44.9567 5.47416 46.2486 6.94147 45.5927 8.39061C45.0017 9.69636 44.0751 10.6355 42.6035 11.8311C42.4933 11.9206 42.3749 12.0019 42.2502 12.0697C40.272 13.1443 38.7416 13.1003 36.6271 12.8332C36.1256 12.7698 35.6651 12.542 35.3076 12.1845C34.8261 11.703 34.5685 11.0277 34.654 10.3521C34.8363 8.91383 35.1395 7.86625 35.83 6.62663Z" fill="#4EADE2"/>
<path d="M40.5165 35.7968C41.6559 36.0546 42.6273 37.2442 41.8834 38.1449C41.6609 38.4144 41.3435 38.749 40.891 39.2259C40.3099 39.78 39.7288 40.334 39.1301 40.9049C38.8644 41.2259 38.5988 41.547 38.3277 41.8745C38.2078 42.0194 38.0728 42.1522 37.9247 42.2681C37.2132 42.825 37.0508 42.8813 35.8199 43.0342C35.5985 43.0617 35.3726 43.0613 35.1514 43.0319C34.1573 42.8998 33.8854 42.8153 33.2333 42.204C32.7992 41.797 32.5327 41.2403 32.4652 40.6491C32.3643 39.7662 32.3704 39.3981 32.4835 38.415C32.5425 37.9019 32.7435 37.4053 33.1219 37.0537C35.1206 35.1965 37.8741 35.1991 40.5165 35.7968Z" fill="#EF8A84"/>
<path d="M47.026 36.1799C46.0517 34.5211 46.9219 32.1758 48.6563 33.0081C48.8208 33.087 48.9897 33.1736 49.1642 33.2685C49.3818 33.3867 49.5779 33.5439 49.7411 33.7301C51.1608 35.3497 51.4493 36.4516 51.563 38.6014C51.5746 38.8221 51.5287 39.0399 51.4298 39.2376C51.1404 39.8165 50.4571 40.1159 49.8795 39.8237C48.3589 39.0546 48.0032 38.0136 47.026 36.1799Z" fill="#EF8A84"/>
<path d="M29.926 23.6021C31.7623 23.0764 33.0944 25.2683 31.5565 26.401C30.7829 26.9709 29.8506 27.4165 28.6753 27.9646C27.7499 28.3043 26.9173 28.4861 26.0528 28.5382C24.9465 28.6049 24.034 27.7496 24.3974 26.7025C24.5499 26.2633 24.9338 25.704 25.3361 25.4711C26.1735 24.9866 26.4239 24.8942 27.869 24.361C28.7267 24.0316 28.7267 24.0316 29.6018 23.6955C29.7174 23.6621 29.825 23.6311 29.926 23.6021Z" fill="#4EADE2"/>
<path d="M25.9851 53.014C25.9521 51.8768 26.9495 50.9413 27.9073 51.5554C28.2679 51.7866 28.703 52.2754 28.802 52.6921C28.9796 53.4401 29.0687 53.8497 29.1342 54.3101C29.2608 55.2007 28.5385 55.9745 27.639 55.9745C27.058 55.9745 26.5005 55.651 26.3192 55.099C26.0883 54.3959 26.0055 53.7178 25.9851 53.014Z" fill="#4A9C88"/>
<circle cx="16.895" cy="28.2065" r="4.02951" fill="#14437A"/>
<circle cx="43.4226" cy="45.3321" r="4.3653" fill="#14437A"/>
<circle cx="45.1016" cy="24.8489" r="3.35792" fill="#14437A"/>
</g>
</svg>
