<svg width="24" height="20" viewBox="0 0 24 20" fill="none" xmlns="http://www.w3.org/2000/svg">
<path fill-rule="evenodd" clip-rule="evenodd" d="M21.4546 0.54541H2.54552C1.24552 0.54541 0.193703 1.60905 0.193703 2.90905L0.181885 17.0909C0.181885 18.3909 1.24552 19.4545 2.54552 19.4545H21.4546C22.7546 19.4545 23.8182 18.3909 23.8182 17.0909V2.90905C23.8182 1.60905 22.7546 0.54541 21.4546 0.54541ZM21.4546 15.909C21.4546 16.559 20.9228 17.0908 20.2728 17.0908H3.72733C3.07733 17.0908 2.54551 16.559 2.54551 15.909V5.27266L10.7473 10.4018C11.5155 10.8863 12.4846 10.8863 13.2528 10.4018L21.4546 5.27266V15.909ZM2.54551 2.90902L12.0001 8.81811L21.4546 2.90902H2.54551Z" fill="#14437A"/>
</svg>
