<?xml version="1.0" standalone="no"?>
<!DOCTYPE svg PUBLIC "-//W3C//DTD SVG 20010904//EN"
 "http://www.w3.org/TR/2001/REC-SVG-20010904/DTD/svg10.dtd">
<svg version="1.0" xmlns="http://www.w3.org/2000/svg"
 width="512.000000pt" height="512.000000pt" viewBox="0 0 512.000000 512.000000"
 preserveAspectRatio="xMidYMid meet">
<metadata>
Created by potrace 1.14, written by Peter Selinger 2001-2017
</metadata>
<g transform="translate(0.000000,512.000000) scale(0.100000,-0.100000)"
fill="#000000" stroke="none">
<path d="M2322 3713 c-28 -4 -37 -11 -53 -46 -45 -101 -13 -158 95 -165 93 -6
152 17 220 84 51 51 78 105 61 122 -8 8 -272 12 -323 5z"/>
<path d="M2838 3636 c-20 -28 -77 -69 -163 -119 -63 -37 -178 -66 -345 -87
-89 -11 -233 -36 -262 -46 -26 -8 -25 -87 2 -114 19 -19 33 -20 280 -20 239 0
264 -2 315 -21 79 -29 116 -66 164 -162 39 -76 43 -90 48 -182 5 -82 9 -104
26 -122 24 -27 65 -30 107 -8 35 18 36 22 50 170 10 115 31 234 52 302 8 28
22 39 101 76 128 61 129 64 66 121 -70 63 -196 144 -294 188 -111 51 -126 53
-147 24z"/>
<path d="M1920 3584 c-57 -31 -119 -69 -138 -85 -18 -16 -36 -29 -40 -29 -4 0
-23 -15 -43 -33 l-36 -34 9 -57 c9 -59 36 -124 60 -143 7 -5 28 -15 47 -21 27
-10 40 -9 66 4 36 17 50 43 64 119 18 97 63 221 101 278 21 31 33 57 27 57 -7
0 -59 -25 -117 -56z"/>
<path d="M2604 3183 c-12 -2 -36 -16 -53 -31 -26 -22 -34 -37 -37 -72 -6 -54
9 -86 55 -117 40 -27 71 -29 112 -8 61 32 85 109 52 166 -15 24 -88 72 -104
68 -2 -1 -13 -4 -25 -6z"/>
<path d="M2045 3096 c-59 -20 -131 -54 -143 -68 -6 -7 -13 -25 -17 -39 -16
-65 71 -76 177 -23 96 48 124 95 76 128 -27 19 -40 19 -93 2z"/>
<path d="M3313 3084 c-38 -19 -53 -60 -53 -147 0 -98 33 -146 155 -223 102
-64 186 -156 236 -259 l44 -90 7 55 c20 142 -39 450 -116 598 -34 65 -198 105
-273 66z"/>
<path d="M1570 3083 c-40 -16 -74 -50 -91 -91 -19 -43 -19 -48 -4 -93 28 -84
102 -121 182 -91 55 20 83 54 90 109 7 56 -12 108 -52 139 -34 26 -96 39 -125
27z"/>
<path d="M1368 2992 c-136 -302 -142 -657 -17 -972 33 -82 86 -180 98 -180 22
0 50 44 56 87 14 103 58 266 86 318 57 106 117 175 244 278 55 45 212 135 370
214 116 58 155 94 155 145 0 28 -8 46 -31 73 -49 55 -87 50 -229 -31 -192
-111 -274 -150 -390 -186 -19 -6 -72 -11 -116 -12 -96 0 -122 13 -156 77 -19
36 -23 57 -23 154 0 62 -3 113 -6 113 -3 0 -22 -35 -41 -78z"/>
<path d="M2703 2758 c-29 -38 -20 -94 29 -171 39 -61 76 -82 107 -61 29 21 28
74 -4 142 -39 84 -103 127 -132 90z"/>
<path d="M2255 2655 c-69 -32 -78 -46 -79 -125 -1 -69 0 -73 32 -101 26 -23
42 -29 78 -29 45 0 49 3 142 94 85 84 94 96 88 120 -4 18 -18 32 -41 42 -44
18 -180 18 -220 -1z"/>
<path d="M3184 2626 c-22 -10 -40 -33 -69 -87 -35 -68 -66 -116 -134 -209 -14
-19 -62 -71 -106 -115 -227 -223 -408 -202 -688 81 -38 38 -81 77 -95 86 -38
25 -78 23 -107 -6 -55 -55 -41 -116 39 -173 180 -128 311 -309 335 -463 21
-127 14 -210 -24 -322 -46 -132 -44 -150 15 -161 76 -14 305 -1 395 23 130 34
206 61 212 76 2 7 -2 45 -11 83 -18 80 -21 249 -6 337 40 224 133 413 313 635
37 46 70 95 74 108 10 38 -9 74 -52 98 -46 26 -50 27 -91 9z"/>
<path d="M2493 2452 c-55 -30 -78 -69 -78 -134 0 -61 17 -94 69 -132 43 -33
132 -29 178 6 21 16 42 43 48 64 16 47 8 119 -17 153 -42 57 -136 78 -200 43z"/>
<path d="M3335 2315 c-17 -16 -25 -35 -25 -58 0 -40 26 -122 50 -157 54 -79
99 -224 86 -276 -5 -18 -13 -24 -35 -24 -26 0 -31 6 -55 73 -15 39 -43 100
-62 134 -41 74 -76 92 -140 71 -95 -31 -139 -214 -103 -427 17 -99 67 -191
103 -191 31 0 198 151 279 253 92 114 184 284 194 355 7 52 -29 120 -105 197
-81 82 -140 98 -187 50z"/>
<path d="M1654 2076 c-54 -24 -69 -82 -69 -266 0 -183 -4 -174 125 -278 112
-91 144 -109 163 -93 38 31 57 345 27 451 -15 56 -75 156 -104 175 -33 22
-106 28 -142 11z"/>
<path d="M1948 2065 c-8 -17 -8 -40 -2 -72 7 -39 14 -49 36 -57 42 -15 72 16
65 67 -11 80 -73 119 -99 62z"/>
<path d="M2046 1773 c-18 -19 -26 -42 -31 -87 -6 -61 -29 -218 -41 -287 l-6
-35 82 -32 c44 -18 99 -35 120 -38 36 -6 40 -4 50 20 5 15 10 77 10 138 0 249
-96 416 -184 321z"/>
</g>
</svg>
